<svg id="Layer_1" data-name="Layer 1" xmlns="http://www.w3.org/2000/svg" xmlns:xlink="http://www.w3.org/1999/xlink" viewBox="0 0 1364.66 840.63"><defs><style>.cls-1{fill:url(#linear-gradient);}.cls-2{fill:url(#linear-gradient-2);}</style><linearGradient id="linear-gradient" x1="1.21" y1="769.36" x2="1.21" y2="768.65" gradientTransform="matrix(1921.17, 0, 0, -1183.43, -1633.17, 910479.25)" gradientUnits="userSpaceOnUse"><stop offset="0" stop-color="#8447ff"/><stop offset="1" stop-color="#ffbef7"/><stop offset="1" stop-color="#ffc2e8"/><stop offset="1" stop-color="#df218a"/></linearGradient><linearGradient id="linear-gradient-2" x1="1.08" y1="769.21" x2="1.08" y2="768.51" gradientTransform="matrix(1689.98, 390.16, 243.59, -1055.12, -188303.35, 811073.95)" gradientUnits="userSpaceOnUse"><stop offset="0" stop-color="#9047ff"/><stop offset="1" stop-color="#ffb0fc"/><stop offset="1" stop-color="#ffc2e8"/><stop offset="1" stop-color="#df218a"/></linearGradient></defs><g id="Group_27" data-name="Group 27"><path id="Path_1" data-name="Path 1" class="cls-1" d="M1364.85.38H1V477.74s279.83-22.84,386.85,103.8,203.49,51.71,244.81,35.87S771.84,604.2,872.08,751.82s302.37,59.82,302.37,59.82,135.61-76.24,189.87,27.51c.2.4.36.71.53,1,1.83,3.58,0-5.68,0-5.68Z" transform="translate(-1 -0.37)"/><path id="Path_2" data-name="Path 2" class="cls-2" d="M1364.85.39S259.52.35,243.78.38c89,23,224.9,72.56,275.6,171.22,75.79,147.47,224.5,27.67,290.42,109.5S787,405.46,831.39,568.64C869,707,1138,711,1209.85,692.52c52.75-23.53,113.93-82.35,155.25-72.3C1365,612.22,1364.85.39,1364.85.39Z" transform="translate(-1 -0.37)"/></g></svg>