<svg id="Layer_1" data-name="Layer 1" xmlns="http://www.w3.org/2000/svg" xmlns:xlink="http://www.w3.org/1999/xlink" viewBox="0 0 393.67 496.49"><defs><style>.cls-1{fill:#a654de;}</style></defs><path id="Path_7-2" data-name="Path 7-2" class="cls-1" d="M615.13,150.68c-55.53,11.14-103,28.06-91.27,51.85s45.21,36.09,59.46,45.75,24.78,39,31.81,65.87,4.46,50.24-19.6,74.81-35.12,30.1-45.84,62.31-7.63,115,11.09,127.24,48.55,25.75,88.82,30.86,153.49,10.52,197.21-26.84,32.58-84.48,24.52-124-43.66-66.88-50.78-101.1,7.92-65,19.13-82.58,4.28-56.41,7.13-63.18c3.81-9,29.14-31.16,53.47-47.39s18.4-40.8-7.13-46.5-131.44,8.93-166.63,14.91S670.65,139.55,615.13,150.68Z" transform="translate(-522.06 -116.51)"/><image width="568" height="795" transform="translate(36.94 40.49) scale(0.55)" xlink:href="../../../female%20bodythick.png"/></svg>