<svg xmlns="http://www.w3.org/2000/svg" xmlns:xlink="http://www.w3.org/1999/xlink" viewBox="0 0 1364.66 840.63"><defs><style>.cls-1{fill:url(#linear-gradient);}.cls-2{fill:url(#linear-gradient-2);}</style><linearGradient id="linear-gradient" x1="0.21" y1="768.99" x2="0.21" y2="768.28" gradientTransform="matrix(1921.17, 0, 0, -1183.43, 287, 910043.24)" gradientUnits="userSpaceOnUse"><stop offset="0" stop-color="#8447ff"/><stop offset="1" stop-color="#ffbef7"/><stop offset="1" stop-color="#ffc2e8"/><stop offset="1" stop-color="#df218a"/></linearGradient><linearGradient id="linear-gradient-2" x1="0.08" y1="768.84" x2="0.08" y2="768.13" gradientTransform="matrix(1689.98, 390.16, 243.59, -1055.12, -186524.7, 811075.34)" gradientUnits="userSpaceOnUse"><stop offset="0" stop-color="#9047ff"/><stop offset="1" stop-color="#ffb0fc"/><stop offset="1" stop-color="#ffc2e8"/><stop offset="1" stop-color="#df218a"/></linearGradient></defs><g id="Layer_2" data-name="Layer 2"><g id="Layer_1-2" data-name="Layer 1"><g id="Group_27" data-name="Group 27"><path id="Path_1" data-name="Path 1" class="cls-1" d="M1363.85,0H0V477.37s279.83-22.83,386.85,103.81S590.34,632.88,631.66,617s139.18-13.21,239.42,134.42,302.37,59.81,302.37,59.81,135.61-76.24,189.87,27.52c.2.39.36.71.53,1,1.83,3.58,0-5.68,0-5.68Z"/><path id="Path_2" data-name="Path 2" class="cls-2" d="M1363.85,0S258.52,0,242.78,0c89,23,224.9,72.56,275.6,171.22,75.79,147.47,224.5,27.67,290.42,109.5s-4.55,120.48,21.59,287.54S1135,725.11,1208.85,692.16c52.75-23.54,113.93-82.36,155.25-72.31C1364,611.85,1363.85,0,1363.85,0Z"/></g></g></g></svg>